<svg width="85" height="28" viewBox="0 0 85 28" fill="none" xmlns="http://www.w3.org/2000/svg">
<path fill-rule="evenodd" clip-rule="evenodd" d="M17.3534 0.390252C17.265 0.604846 17.067 0.891811 16.9135 1.02799L16.6346 1.27539L16.1385 1.04268C15.8656 0.914614 15.3678 0.749951 15.0322 0.676677C14.6966 0.603404 14.0261 0.542838 13.5422 0.542117C13.0582 0.541396 12.4012 0.603133 12.0822 0.679471C11.7631 0.755719 11.2384 0.931738 10.9162 1.07053C10.5939 1.20942 10.0498 1.56272 9.70712 1.85572C9.36452 2.14864 8.87543 2.68364 8.62032 3.04451C8.36532 3.40538 7.98193 4.11513 7.76829 4.62174C7.55474 5.12834 7.24747 6.00925 7.08561 6.57931C6.92365 7.14936 6.72305 7.96051 6.63973 8.38186C6.55652 8.8032 6.43875 9.26141 6.37791 9.40003C6.31718 9.53873 6.13128 9.71781 5.96484 9.79803C5.7984 9.87833 5.39945 9.96765 5.07825 9.99658C4.53534 10.0455 4.49427 10.0651 4.49427 10.2745C4.49427 10.4876 4.52931 10.5023 5.13665 10.5449C5.48996 10.5697 5.85126 10.6457 5.93963 10.7136C6.05186 10.8001 6.10023 10.9811 6.10023 11.3143C6.10023 11.5766 5.68424 14.4485 5.17588 17.6962C4.66752 20.9439 4.16237 24.0399 4.05336 24.5761C3.94444 25.1124 3.77022 25.8176 3.66617 26.1435C3.56223 26.4693 3.39238 26.8069 3.28872 26.8938C3.17835 26.9862 2.98914 27.0396 2.83244 27.0225C2.59933 26.997 2.53548 26.9173 2.33936 26.4074C2.21546 26.0851 2.00113 25.7303 1.86312 25.6187C1.69094 25.4796 1.48761 25.4159 1.21538 25.4159C0.985775 25.4159 0.683173 25.4935 0.497076 25.6C0.302511 25.7113 0.1315 25.9074 0.0642447 26.096C0.0031208 26.2676 -0.0181947 26.5291 0.0169418 26.6773C0.052565 26.8276 0.234379 27.0637 0.428554 27.2119C0.61981 27.3579 0.993659 27.5257 1.25918 27.5847C1.5247 27.6436 2.03276 27.6724 2.38812 27.6484C2.74425 27.6245 3.26206 27.5139 3.54179 27.402C3.83719 27.2839 4.2305 27.0196 4.48317 26.7696C4.72173 26.5333 5.04672 26.1017 5.20517 25.8103C5.36372 25.5191 5.60861 24.9424 5.74945 24.5288C5.89019 24.1153 6.11201 23.2839 6.24223 22.6812C6.37256 22.0786 6.85941 19.1521 7.32417 16.1779C7.78902 13.2037 8.17815 10.7602 8.18886 10.748C8.19966 10.7357 8.55531 10.7679 8.97928 10.8194C9.40325 10.8708 9.94977 10.9362 10.1937 10.9647C10.5997 11.0121 10.6641 10.9916 10.9565 10.7208C11.132 10.5583 11.3176 10.3235 11.3686 10.1991C11.4351 10.037 11.4259 9.94061 11.3358 9.85886C11.2356 9.76793 10.9286 9.76531 9.82479 9.84598C9.06289 9.90158 8.41291 9.92258 8.3805 9.89248C8.34799 9.86247 8.41583 9.25672 8.53117 8.54652C8.6466 7.83631 8.82988 6.86997 8.9386 6.39905C9.04732 5.92813 9.26806 5.15754 9.42924 4.68663C9.59033 4.21571 9.91959 3.4745 10.161 3.03946C10.4024 2.60441 10.7817 2.07519 11.0039 1.86348C11.2261 1.65177 11.6071 1.38923 11.8507 1.28008C12.1385 1.15102 12.4765 1.08153 12.8161 1.08153C13.1462 1.08153 13.4924 1.15048 13.7565 1.2689C13.9864 1.37192 14.369 1.65654 14.6068 1.90151C14.8445 2.14639 15.1326 2.52564 15.2469 2.74429L15.4547 3.14175L13.9272 10.6963C13.087 14.8513 12.3811 18.555 12.3585 18.9268C12.3263 19.4577 12.3553 19.6701 12.4937 19.9169C12.5907 20.0897 12.7796 20.2817 12.9134 20.3437C13.0472 20.4056 13.3538 20.4565 13.5947 20.4567C13.8558 20.457 14.239 20.3683 14.5432 20.2371C14.8649 20.0984 15.3958 19.7105 15.9788 19.1882C16.4877 18.7325 16.904 18.3071 16.904 18.2429C16.904 18.1787 16.859 18.1005 16.804 18.069C16.749 18.0376 16.4534 18.2114 16.147 18.4553C15.8406 18.6992 15.4726 18.9686 15.3293 19.0541C15.1772 19.1447 14.9337 19.1975 14.7453 19.1808C14.4605 19.1555 14.4111 19.1111 14.3302 18.808C14.253 18.518 14.5181 17.062 16.0126 9.56992C16.9885 4.67825 17.8129 0.523911 17.8448 0.337978C17.8955 0.04245 17.8784 0 17.7086 0C17.5692 0 17.469 0.110226 17.3534 0.390252ZM53.2036 8.91983C52.0714 9.43085 51.1995 9.87788 51.1816 9.95656C51.1643 10.0326 51.2113 10.1166 51.2863 10.1432C51.3611 10.1698 51.6307 10.1088 51.8854 10.0078C52.1402 9.90663 52.4873 9.82453 52.6569 9.82525C52.8264 9.82606 53.0308 9.86526 53.1111 9.9124C53.2188 9.97567 53.2528 10.147 53.241 10.5645C53.2321 10.876 52.5677 14.4159 51.7646 18.4311C50.9616 22.4462 50.2769 25.9545 50.2432 26.2271C50.2047 26.5381 50.2295 26.8707 50.3098 27.1197C50.3861 27.3568 50.5478 27.5928 50.7111 27.7055C50.9095 27.8425 51.1234 27.8933 51.49 27.8901C51.8166 27.8872 52.1668 27.809 52.4802 27.6688C52.7556 27.5456 53.3542 27.1036 53.8654 26.6459C54.364 26.1997 54.7657 25.7656 54.7657 25.6731C54.7657 25.5812 54.7157 25.5061 54.6546 25.5061C54.5935 25.5061 54.3197 25.683 54.0463 25.8993C53.7729 26.1156 53.3958 26.3791 53.2084 26.4848C53.0211 26.5906 52.7943 26.6772 52.7044 26.6774C52.6145 26.6776 52.4722 26.614 52.388 26.5361C52.2928 26.4479 52.2351 26.2361 52.2351 25.9745C52.2351 25.7435 53.0043 21.6657 53.9446 16.9129C54.8848 12.1599 55.6307 8.21494 55.6023 8.14626C55.5738 8.07759 55.4703 8.02135 55.3723 8.02135C55.2743 8.02135 54.2984 8.42566 53.2036 8.91983ZM29.5238 9.34514C29.4458 9.48456 29.2654 9.71484 29.1229 9.85697L28.8638 10.1154L28.6508 9.93511C28.5336 9.83597 28.2848 9.68312 28.0978 9.59551C27.9108 9.50791 27.4662 9.41688 27.1097 9.39327C26.6252 9.36118 26.2933 9.39795 25.7951 9.53918C25.4284 9.64301 24.8447 9.8814 24.498 10.0689C24.1168 10.275 23.4204 10.8195 22.7365 11.4462C22.0036 12.1178 21.3943 12.7786 21.0057 13.3235C20.6758 13.7861 20.2359 14.4958 20.0281 14.9008C19.8202 15.3058 19.5391 15.9646 19.4033 16.3649C19.2676 16.7652 19.1075 17.4246 19.0475 17.8303C18.9696 18.3567 18.9678 18.7151 19.0409 19.0815C19.0973 19.364 19.2489 19.7425 19.3776 19.9228C19.5065 20.103 19.7647 20.3177 19.9516 20.3998C20.1489 20.4865 20.5328 20.5491 20.8673 20.5491C21.184 20.5491 21.6657 20.4879 21.9377 20.4131C22.2097 20.3383 22.6967 20.1136 23.02 19.9137C23.3432 19.7138 23.9061 19.2736 24.2708 18.9354C24.6354 18.5973 25.1816 18.0007 25.4845 17.6097C25.7874 17.2188 26.217 16.5947 26.4393 16.2229C26.7184 15.7561 26.8272 15.6306 26.791 15.8174C26.7621 15.9661 26.6453 16.5947 26.5311 17.2143C26.417 17.834 26.3175 18.6248 26.31 18.9718C26.3022 19.3368 26.3535 19.728 26.4318 19.8999C26.5063 20.0634 26.6902 20.256 26.8406 20.328C26.991 20.4 27.3024 20.4586 27.5325 20.458C27.7726 20.4576 28.1734 20.3613 28.4728 20.2323C28.8191 20.0829 29.3076 19.7212 29.9251 19.1569C30.7373 18.4145 30.8391 18.288 30.726 18.1618C30.6096 18.032 30.5607 18.0487 30.247 18.3257C30.0549 18.4953 29.705 18.7608 29.4694 18.9157C29.2018 19.0915 28.9227 19.1972 28.7255 19.1972C28.5274 19.1972 28.3879 19.1441 28.3508 19.0546C28.3183 18.9762 28.2917 18.6987 28.2917 18.4382C28.2917 18.1775 28.6611 16.1023 29.1126 13.8265C29.5641 11.5507 29.9474 9.56847 29.9642 9.42157C29.9865 9.22824 29.9494 9.14569 29.8303 9.12297C29.7277 9.10351 29.6121 9.18732 29.5238 9.34514ZM46.6212 9.60876C46.451 9.68654 46.243 9.88437 46.1589 10.0485C46.0748 10.2125 46.006 10.4478 46.006 10.5712C46.006 10.6946 46.1482 10.9776 46.3223 11.2001C46.4963 11.4225 46.7814 11.7782 46.9559 11.9906C47.1304 12.2032 47.3384 12.5804 47.4182 12.8292C47.4979 13.0779 47.5632 13.5597 47.5632 13.8998C47.5632 14.2399 47.4938 14.8307 47.4089 15.2128C47.3239 15.5948 47.1633 16.1103 47.052 16.3581C46.9405 16.606 46.6565 17.0822 46.4208 17.4163C46.185 17.7505 45.8091 18.1611 45.5854 18.329C45.3617 18.4967 45.0467 18.6959 44.8854 18.7717C44.7241 18.8474 44.3956 18.9357 44.1554 18.9679C43.8763 19.0053 43.5503 18.9786 43.252 18.8941C42.9953 18.8212 42.6309 18.6527 42.4424 18.5195C42.2537 18.3863 41.9749 18.1181 41.8228 17.9237L41.5461 17.5701L42.0293 16.7203C42.2951 16.2528 42.6444 15.5355 42.8057 15.1264C42.967 14.7171 43.2068 13.9752 43.3386 13.4776C43.4703 12.9799 43.6041 12.1875 43.6358 11.7166C43.672 11.1799 43.6516 10.718 43.5811 10.4788C43.5193 10.2689 43.3716 9.99261 43.2528 9.86481C43.11 9.71105 42.9055 9.6175 42.6478 9.5883C42.364 9.55604 42.1739 9.59335 41.9453 9.72602C41.7729 9.82615 41.5006 10.076 41.3401 10.2811C41.1796 10.4863 40.9178 10.9673 40.7584 11.3501C40.599 11.7328 40.3763 12.4654 40.2634 12.9782C40.1506 13.4909 40.0182 14.3323 39.9694 14.8478C39.916 15.4099 39.9157 16.1163 39.9685 16.6124C40.017 17.0674 40.0851 17.5641 40.12 17.7163C40.1749 17.956 40.1365 18.0308 39.8314 18.2789C39.6378 18.4364 39.3163 18.6417 39.1171 18.7352C38.9178 18.8286 38.5736 18.9331 38.3521 18.9672C38.1306 19.0014 37.775 18.9858 37.5618 18.9326C37.3486 18.8795 37.0575 18.751 36.9149 18.6472C36.7724 18.5434 36.543 18.2523 36.4052 18.0006C36.2251 17.6714 36.1402 17.3456 36.1027 16.84C36.074 16.4526 36.1051 15.8229 36.1721 15.4366C36.2389 15.0512 36.4454 14.251 36.631 13.6583C36.8166 13.0656 37.2323 11.9576 37.5548 11.1961C37.8773 10.4345 38.111 9.78379 38.0743 9.75008C38.0377 9.71628 37.2121 9.6887 36.2399 9.6887C34.7826 9.6887 34.394 9.71664 34.0264 9.84805C33.7813 9.93565 33.4614 10.1226 33.3157 10.2634C33.1699 10.4043 32.8734 10.9004 32.6565 11.3659C32.4398 11.8314 32.2393 12.3441 32.2109 12.5052C32.1712 12.731 32.1943 12.7981 32.3115 12.7981C32.3998 12.7981 32.5787 12.5809 32.7385 12.2799C32.9435 11.8934 33.1035 11.7208 33.3673 11.6011C33.6122 11.4901 34.0651 11.4236 34.8368 11.3853C35.4504 11.3548 36.0683 11.3569 36.21 11.3898C36.3671 11.4263 36.4675 11.5118 36.4675 11.6091C36.4675 11.6968 36.122 12.4565 35.6998 13.2973C35.2774 14.138 34.8125 15.1707 34.6665 15.5921C34.4835 16.12 34.3853 16.6325 34.3504 17.241C34.3122 17.9068 34.3401 18.2614 34.464 18.6831C34.5543 18.9906 34.7763 19.4305 34.9573 19.6607C35.1806 19.9447 35.4599 20.1578 35.8262 20.3237C36.302 20.5393 36.4561 20.5645 37.1275 20.5362C37.7709 20.509 38.0014 20.4521 38.6139 20.1693C39.0126 19.9851 39.6057 19.6124 39.9318 19.3409L40.5249 18.8474L40.6825 19.1535C40.7693 19.3219 40.9979 19.6212 41.1906 19.8189C41.3834 20.0164 41.7274 20.2615 41.9549 20.3636C42.233 20.4881 42.5584 20.5483 42.9464 20.5469C43.3273 20.5456 43.7155 20.4719 44.0863 20.3307C44.3956 20.2129 44.8961 19.9401 45.1986 19.7245C45.501 19.5088 45.985 19.0687 46.274 18.7465C46.5631 18.4243 46.98 17.8768 47.2007 17.5298C47.4212 17.1828 47.7297 16.5947 47.886 16.2229C48.0424 15.8512 48.2714 15.1785 48.3949 14.7281C48.5184 14.2777 48.6705 13.4193 48.7329 12.8204C48.8137 12.0442 48.8174 11.5592 48.7454 11.1319C48.69 10.8021 48.5502 10.3515 48.4347 10.1306C48.3155 9.90267 48.1047 9.6714 47.9474 9.59614C47.795 9.52314 47.5038 9.46429 47.3005 9.46546C47.097 9.46654 46.7913 9.53107 46.6212 9.60876ZM26.6306 10.7222C26.8877 10.8436 27.0704 11.0229 27.2108 11.2914C27.344 11.5461 27.4157 11.8592 27.4157 12.1856C27.4157 12.4618 27.3045 13.0432 27.1686 13.4776C27.0326 13.9119 26.7729 14.5649 26.5914 14.9287C26.4099 15.2925 26.0113 15.9454 25.7057 16.3797C25.4001 16.814 24.833 17.4628 24.4458 17.8216C24.0113 18.224 23.541 18.5604 23.2183 18.6995C22.8775 18.8464 22.5255 18.9246 22.2085 18.9239C21.8939 18.9232 21.6485 18.8677 21.5143 18.7671C21.4001 18.6814 21.2587 18.5244 21.2 18.418C21.1413 18.3117 21.0667 18.0075 21.0343 17.742C21.0018 17.4766 21.0223 16.9188 21.08 16.5025C21.1376 16.0861 21.2571 15.4778 21.3455 15.1506C21.434 14.8234 21.6481 14.2439 21.8214 13.863C21.9947 13.4821 22.3372 12.8908 22.5825 12.5491C22.8278 12.2074 23.2494 11.7365 23.5194 11.5027C23.7893 11.2689 24.2837 10.9578 24.6179 10.8113C25.0525 10.6209 25.3726 10.545 25.7407 10.545C26.0607 10.5449 26.3975 10.612 26.6306 10.7222ZM42.2062 11.6246C42.3042 11.673 42.4326 11.8413 42.4918 11.9985C42.551 12.1557 42.5994 12.4736 42.5994 12.7049C42.5994 12.9362 42.5533 13.3662 42.4971 13.6603C42.4408 13.9544 42.3032 14.4587 42.1914 14.7809C42.0794 15.1031 41.8121 15.6912 41.5971 16.0878L41.2062 16.8088L41.0824 16.5384C41.0143 16.3897 40.9058 15.9841 40.8413 15.6371C40.7691 15.249 40.7455 14.6246 40.78 14.0148C40.8107 13.4696 40.9053 12.8124 40.9901 12.5545C41.0749 12.2966 41.2565 11.9621 41.3938 11.8109C41.5311 11.6599 41.7299 11.5363 41.8358 11.5363C41.9416 11.5363 42.1083 11.5761 42.2062 11.6246ZM63.0582 16.8952C62.6674 16.963 62.0323 17.1575 61.6469 17.3274C61.2615 17.4973 60.6123 17.8826 60.2042 18.1835C59.7961 18.4844 59.2108 19.0281 58.9037 19.3916C58.5964 19.7552 58.1799 20.357 57.978 20.729C57.7761 21.1009 57.5151 21.6892 57.3981 22.0362C57.2604 22.4442 57.166 23.0172 57.1309 23.6585C57.0897 24.4086 57.1145 24.7866 57.2327 25.2118C57.3186 25.5209 57.501 25.9785 57.638 26.229C57.775 26.4794 58.0429 26.8437 58.2331 27.0388C58.4233 27.2338 58.8051 27.4952 59.0813 27.6197C59.3576 27.7441 59.9138 27.8909 60.3172 27.9459C60.9116 28.0269 61.2165 28.0195 61.9232 27.9067C62.5585 27.8053 63.0337 27.6571 63.6715 27.3617C64.1533 27.1386 64.7446 26.7955 64.9855 26.5993C65.3433 26.3078 65.4007 26.2209 65.2991 26.1242C65.199 26.0289 65.1421 26.0278 65.0071 26.1187C64.9149 26.1808 64.5767 26.3511 64.2555 26.4972C63.9225 26.6487 63.3751 26.8017 62.9815 26.8531C62.5418 26.9106 62.0892 26.9129 61.7343 26.8594C61.4279 26.8132 61.0274 26.6897 60.8444 26.585C60.6614 26.4803 60.3632 26.2339 60.1816 26.0376C60.0001 25.8412 59.7524 25.4486 59.6312 25.1652C59.4623 24.7701 59.3999 24.4038 59.3638 23.5957C59.3379 23.0159 59.344 22.4065 59.3775 22.2414L59.4383 21.9414L60.5816 21.6945C61.2104 21.5588 62.1895 21.2742 62.7573 21.0623C63.3251 20.8503 64.0419 20.5365 64.3499 20.365C64.6581 20.1936 65.0986 19.9008 65.329 19.7144C65.5594 19.5279 65.861 19.1651 65.9993 18.9081C66.1376 18.6511 66.2506 18.2966 66.2504 18.1205C66.2502 17.9443 66.1669 17.6739 66.0653 17.5196C65.9637 17.3652 65.6901 17.1552 65.4574 17.0529C65.2245 16.9506 64.7495 16.8455 64.4015 16.8194C64.0428 16.7925 63.4613 16.8253 63.0582 16.8952ZM72.2367 16.9418C72.0225 16.9856 71.6521 17.0863 71.4135 17.1655C71.1749 17.2448 70.771 17.4337 70.5159 17.5852C70.2608 17.7368 69.913 18.0076 69.743 18.1869C69.5729 18.3663 69.3346 18.7176 69.2136 18.9677C69.0925 19.2178 68.9641 19.5934 68.9282 19.8022C68.885 20.0534 68.9179 20.3585 69.0252 20.7035C69.168 21.1621 69.2899 21.3174 70.0353 21.9911C70.5016 22.4125 71.2149 23.0411 71.6206 23.3881C72.0261 23.7351 72.455 24.1967 72.5735 24.414C72.7338 24.7076 72.7891 24.968 72.7891 25.4281C72.7891 25.8696 72.7315 26.1575 72.5879 26.432C72.4766 26.645 72.2474 26.8931 72.0746 26.9877C71.864 27.1029 71.5771 27.1584 71.1928 27.1584C70.7768 27.1584 70.5521 27.1099 70.3593 26.9787C70.2141 26.8797 69.9421 26.6006 69.7547 26.3583C69.5674 26.116 69.2501 25.7597 69.0496 25.5665C68.7145 25.2438 68.6556 25.2205 68.3196 25.278C68.1186 25.3123 67.8555 25.4254 67.7349 25.5292C67.6144 25.6331 67.4756 25.8528 67.4265 26.0176C67.3716 26.2017 67.3725 26.4361 67.429 26.6253C67.4795 26.7946 67.6818 27.0641 67.8785 27.2241C68.0753 27.3841 68.4355 27.5976 68.6791 27.6986C68.9744 27.8211 69.4036 27.8954 69.9668 27.9217C70.6367 27.9529 70.9515 27.9216 71.488 27.7707C71.8996 27.6549 72.39 27.4268 72.7403 27.1879C73.0569 26.9721 73.4571 26.6305 73.6296 26.4289C73.8019 26.2273 74.0625 25.8257 74.2085 25.5364C74.4243 25.1088 74.4737 24.8838 74.4724 24.3344C74.4712 23.8212 74.4211 23.5716 74.2645 23.2979C74.151 23.0996 73.671 22.5926 73.1981 22.1713C72.7251 21.75 72.0289 21.1214 71.6508 20.7744C71.2728 20.4274 70.8886 19.9954 70.7971 19.8144C70.693 19.6084 70.6307 19.2634 70.6307 18.8921C70.6307 18.3719 70.6637 18.2646 70.8984 18.0222C71.0595 17.8556 71.321 17.7129 71.5553 17.6637C71.7953 17.6133 72.0754 17.6151 72.2853 17.6685C72.4727 17.7161 72.6781 17.7864 72.7418 17.8246C72.8055 17.8629 73.0691 18.1568 73.3277 18.4778C73.5863 18.7987 73.9212 19.1159 74.0718 19.1828C74.2367 19.2561 74.4752 19.282 74.6708 19.248C74.8702 19.2134 75.1113 19.0696 75.2952 18.8758C75.4999 18.6599 75.5935 18.4683 75.5912 18.2702C75.5892 18.1108 75.5345 17.8926 75.4695 17.7852C75.4045 17.6779 75.2337 17.5046 75.0899 17.4003C74.9462 17.2959 74.6412 17.1493 74.4122 17.0745C74.1832 16.9997 73.6877 16.9213 73.3109 16.9003C72.9342 16.8793 72.4508 16.898 72.2367 16.9418ZM81.46 16.9903C81.1261 17.0574 80.5873 17.2435 80.2626 17.4038C79.9379 17.564 79.4586 17.9116 79.1976 18.1761C78.9135 18.4639 78.6381 18.8649 78.5117 19.1749C78.3503 19.5707 78.3113 19.8214 78.346 20.2377C78.371 20.5373 78.4672 20.918 78.5597 21.0835C78.6521 21.2491 78.9762 21.6123 79.2798 21.8906C79.5834 22.1689 80.2647 22.7601 80.7938 23.2041C81.5283 23.8206 81.8129 24.1269 81.9967 24.4989C82.2008 24.9117 82.2304 25.0798 82.1902 25.5993C82.1618 25.9674 82.0694 26.3288 81.959 26.5033C81.8578 26.6632 81.6564 26.876 81.5111 26.9762C81.3173 27.1101 81.0979 27.1583 80.6838 27.1579C80.3482 27.1577 79.9939 27.0966 79.8072 27.0069C79.6331 26.9232 79.3131 26.6061 79.0876 26.2938C78.8641 25.9845 78.5945 25.6423 78.4883 25.5333C78.3822 25.4243 78.1715 25.31 78.0202 25.2792C77.8473 25.2441 77.6123 25.2816 77.3878 25.3802C77.1503 25.4845 76.9824 25.6438 76.887 25.8553C76.8055 26.036 76.7661 26.3023 76.7957 26.4715C76.8245 26.6355 76.9398 26.8891 77.0521 27.0351C77.1645 27.1813 77.5489 27.434 77.9077 27.5975C78.5249 27.8789 78.6152 27.8945 79.6318 27.8945C80.6368 27.8945 80.7459 27.8762 81.3623 27.606C81.7241 27.4472 82.2593 27.1078 82.5518 26.8517C82.8443 26.5956 83.2146 26.1968 83.3749 25.9656C83.5351 25.7344 83.7366 25.2909 83.8227 24.9801C83.9496 24.5213 83.9586 24.3273 83.8709 23.9486C83.8116 23.6922 83.6582 23.3167 83.53 23.1142C83.4019 22.9118 82.6521 22.1808 81.8637 21.4899C80.789 20.548 80.3735 20.1209 80.2034 19.783C80.0778 19.5335 79.9759 19.16 79.9755 18.9464C79.9749 18.7342 80.0368 18.4225 80.1128 18.2539C80.1942 18.0735 80.3845 17.8828 80.5751 17.7905C80.7577 17.7022 81.1009 17.6361 81.3614 17.6389C81.6156 17.6418 81.9319 17.7099 82.0643 17.7902C82.1966 17.8705 82.4755 18.149 82.684 18.409C82.8926 18.669 83.1511 18.9544 83.2587 19.0433C83.3663 19.1322 83.602 19.2254 83.7827 19.2504C84.0119 19.2821 84.2084 19.2395 84.4332 19.1094C84.6105 19.0068 84.821 18.7775 84.9011 18.6001C84.9837 18.4168 85.0213 18.1698 84.9878 18.0288C84.9554 17.8922 84.8106 17.678 84.6659 17.5528C84.5214 17.4275 84.2708 17.2634 84.1091 17.1879C83.9474 17.1126 83.5562 17.0065 83.2395 16.9523C82.923 16.8982 82.5297 16.8571 82.3655 16.861C82.2014 16.8649 81.7939 16.9231 81.46 16.9903ZM63.5057 17.815C63.6285 17.8864 63.7764 18.041 63.8342 18.1584C63.8949 18.2819 63.9118 18.5411 63.8743 18.7729C63.8386 18.9934 63.6819 19.3598 63.5261 19.5873C63.3704 19.8148 63.0546 20.1295 62.8246 20.2867C62.5945 20.4439 62.1394 20.6864 61.8133 20.8257C61.4871 20.9648 60.8579 21.1644 60.415 21.2691C59.9721 21.3738 59.5863 21.4377 59.5575 21.4111C59.5288 21.3845 59.5829 21.0977 59.6776 20.7737C59.7723 20.4496 59.9927 19.9116 60.1673 19.5781C60.3419 19.2446 60.6212 18.8002 60.7878 18.5905C60.9544 18.3808 61.2684 18.1003 61.4856 17.9673C61.7028 17.8342 62.0426 17.6963 62.2407 17.6607C62.4388 17.6251 62.7542 17.6161 62.9416 17.6406C63.1289 17.6652 63.3828 17.7437 63.5057 17.815Z" fill="#3E583F"/>
</svg>
